<svg width="70" height="70" viewBox="0 0 70 70" fill="none" xmlns="http://www.w3.org/2000/svg">
<rect width="70" height="70" rx="35" fill="#C3FF3D"/>
<g clip-path="url(#clip0_25_533)">
<path d="M34.9788 15C26.7442 15 19.6828 19.9813 16.6108 27.0853H26.0188C28.2162 24.6107 31.4055 23.032 34.9788 23.032C41.5922 23.032 46.9468 28.3867 46.9468 35C46.9468 41.6133 41.5922 46.968 34.9788 46.968C32.5895 46.968 30.3922 46.2427 28.5362 45.0373H17.6988C21.1655 50.9893 27.5975 55 34.9788 55C46.0295 55 54.9788 46.0507 54.9788 35C54.9788 23.9493 46.0295 15 34.9788 15Z" fill="black"/>
<path d="M15.0215 39.032V43.0213H34.9788C37.1868 43.0213 38.9682 41.24 38.9682 39.032H15.0215Z" fill="black"/>
<path d="M35.9812 37.0373C37.6366 37.0373 38.9786 35.6954 38.9786 34.04C38.9786 32.3846 37.6366 31.0427 35.9812 31.0427C34.3258 31.0427 32.9839 32.3846 32.9839 34.04C32.9839 35.6954 34.3258 37.0373 35.9812 37.0373Z" fill="black"/>
<path d="M27.9922 31.0427H15.0215V37.0267H27.9922C29.6455 37.0373 30.9895 35.6933 30.9895 34.04C30.9895 32.3867 29.6455 31.0427 27.9922 31.0427Z" fill="black"/>
</g>
<defs>
<clipPath id="clip0_25_533">
<rect width="40" height="40" fill="white" transform="translate(15 15)"/>
</clipPath>
</defs>
</svg>
