<svg width="70" height="70" viewBox="0 0 70 70" fill="none" xmlns="http://www.w3.org/2000/svg">
<rect width="70" height="70" rx="35" fill="white"/>
<g clip-path="url(#clip0_3_38)">
<path d="M34.9787 15C26.744 15 19.6827 19.9813 16.6107 27.0853H26.0187C28.216 24.6107 31.4053 23.032 34.9787 23.032C41.592 23.032 46.9467 28.3867 46.9467 35C46.9467 41.6133 41.592 46.968 34.9787 46.968C32.5893 46.968 30.392 46.2427 28.536 45.0373H17.6987C21.1653 50.9893 27.5973 55 34.9787 55C46.0293 55 54.9786 46.0507 54.9786 35C54.9786 23.9493 46.0293 15 34.9787 15Z" fill="black"/>
<path d="M15.0213 39.032V43.0213H34.9787C37.1867 43.0213 38.968 41.24 38.968 39.032H15.0213Z" fill="black"/>
<path d="M35.9813 37.0373C37.6367 37.0373 38.9787 35.6954 38.9787 34.04C38.9787 32.3846 37.6367 31.0427 35.9813 31.0427C34.326 31.0427 32.984 32.3846 32.984 34.04C32.984 35.6954 34.326 37.0373 35.9813 37.0373Z" fill="black"/>
<path d="M27.992 31.0427H15.0213V37.0267H27.992C29.6453 37.0373 30.9893 35.6933 30.9893 34.04C30.9893 32.3867 29.6453 31.0427 27.992 31.0427Z" fill="black"/>
</g>
<defs>
<clipPath id="clip0_3_38">
<rect width="40" height="40" fill="white" transform="translate(15 15)"/>
</clipPath>
</defs>
</svg>
